<?xml version="1.0" encoding="utf-8"?>
<!-- Generator: Adobe Illustrator 16.0.0, SVG Export Plug-In . SVG Version: 6.00 Build 0)  -->
<!DOCTYPE svg PUBLIC "-//W3C//DTD SVG 1.1//EN" "http://www.w3.org/Graphics/SVG/1.1/DTD/svg11.dtd">
<svg version="1.1" id="Capa_1" xmlns="http://www.w3.org/2000/svg" xmlns:xlink="http://www.w3.org/1999/xlink" x="0px" y="0px"
	 width="295.184px" height="295.184px" viewBox="0 0 295.184 295.184" enable-background="new 0 0 295.184 295.184"
	 xml:space="preserve">
<g>
	<path fill="#43AA00" d="M206.262,101.754c0-4.911-2.538-9.129-6.151-10.923c-0.606,8.055-2.492,15.662-5.377,22.596
		c0.503,0.088,1,0.176,1.514,0.176C201.769,113.606,206.262,108.292,206.262,101.754z"/>
	<path fill="#43AA00" d="M145.72,139.32c24.212,0,44.143-20.854,46.235-50.035H99.484C101.574,118.465,121.51,139.32,145.72,139.32z
		 M116.291,98.885c4.971,9.722,12.26,17.074,21.612,20.095c4.553,1.471,2.615,9.829-1.944,8.354
		c-11.162-3.605-20.048-12.474-25.984-24.08C107.522,98.463,113.854,94.115,116.291,98.885z"/>
	<path fill="#43AA00" d="M53.923,120.341c0,9.066,1.02,18.343,3.028,27.569c0.049,0.616,0.159,1.227,0.338,1.813
		c0.592,1.947,5.866,19.188,9.514,26.483c18.664,41.976,44.251,77.896,76.073,106.788c0.565,0.778,1.274,1.435,2.08,1.903
		c0.749,0.438,1.555,0.671,2.369,0.719c0.15,0.01,0.304,0.02,0.456,0.02c1.001,0,2.013-0.29,2.943-0.826
		c0.696-0.41,1.299-0.979,1.805-1.652c71.182-64.472,85.05-132.028,85.563-134.67c2.1-9.454,3.168-18.928,3.168-28.147
		c0-61.093-42.024-110.795-93.669-110.795C95.945,9.546,53.923,59.248,53.923,120.341z M152.955,65.545
		c-0.401,5.519-7.729,5.569-7.321,0c0.883-12.058-7.462-21.453-6.226-33.784c0.552-5.476,7.881-5.538,7.322,0
		C145.523,43.796,153.855,53.304,152.955,65.545z M196.247,79.558c10.056,0,18.237,9.995,18.237,21.885
		c0,11.896-8.184,21.734-18.237,21.734c-2.016,0-3.954-0.396-5.829-1.152c-9.898,16.643-26.226,27.614-44.697,27.614
		c-30.127,0-54.64-29.286-54.64-64.926c0-2.69,1.838-5.155,4.111-5.155H196.247L196.247,79.558z M170.53,65.545
		c-0.405,5.519-7.729,5.569-7.323,0c0.884-12.058-7.464-21.453-6.229-33.784c0.556-5.476,7.878-5.538,7.325,0
		C163.097,43.796,171.429,53.304,170.53,65.545z M145.72,160.307c36.346,0,57.92-7.505,60.566-11.988
		c-0.658-0.902-3.551-3.9-14.295-6.873c-2.213-0.611-3.585-3.229-3.066-5.842c0.513-2.622,2.729-4.226,4.938-3.628
		c13.975,3.873,20.773,9.208,20.773,16.306c0,21.506-66.104,21.758-68.92,21.758c-2.817,0-68.92-0.252-68.92-21.758
		c0-7.154,6.917-12.521,21.138-16.407c2.217-0.608,4.417,1.031,4.932,3.647c0.51,2.617-0.872,5.229-3.084,5.833
		c-11.021,3.006-13.968,6.063-14.635,6.971C87.804,152.802,109.373,160.307,145.72,160.307z M129.159,31.761
		c-1.208,12.038,7.12,21.542,6.224,33.784c-0.401,5.519-7.729,5.569-7.321,0c0.882-12.058-7.463-21.453-6.226-33.784
		c0.165-1.648,0.97-2.742,1.965-3.402c0.707-0.472,1.494-0.725,2.274-0.695C127.838,27.734,129.427,29.079,129.159,31.761z
		 M62.883,147.263l0.173-0.114c-1.402-6.181-2.335-12.575-2.754-19.146c0.46,6.57,1.459,12.966,2.856,19.146l-0.066,0.114
		c0,0,5.136,18.314,8.745,25.544C68.228,165.578,62.883,147.263,62.883,147.263z M235.091,120.085
		c0,9.104-1.718,18.015-3.589,26.428c1.871-8.413,3.276-17.387,3.276-26.492c0-57.13-38.979-103.689-87.266-103.689
		c0.024,0,0.055,0,0.078,0C195.915,16.33,235.091,62.924,235.091,120.085z"/>
</g>
</svg>
